<svg width="28" height="18" viewBox="0 0 28 18" fill=""
    xmlns="http://www.w3.org/2000/svg">
    
    <defs>
        <linearGradient id="gradient" x1="85%" y1="100%" x2="15%" y2="0%">

            <stop offset="0%" style="stop-color:rgba(255, 255, 255, 1);stop-opacity:1.00" />
            <stop offset="33%" style="stop-color:rgba(255, 255, 255, 1);stop-opacity:1.00" />
            <stop offset="33%" style="stop-color:rgba(255, 75, 28, 1);stop-opacity:1.00" />
            <stop offset="66%" style="stop-color:rgba(255, 75, 28, 1);stop-opacity:1.00" />
            <stop offset="66%" style="stop-color:rgba(6, 255, 255, 1);stop-opacity:1.00" />
            <stop offset="100%" style="stop-color:rgba(6, 255, 255, 1);stop-opacity:1.00" />

        </linearGradient>

        <filter id="blur" x="0" y="0">
            <feGaussianBlur in="SourceGraphic" stdDeviation="1.3" />
        </filter>
    </defs>

    <path class="svg_blur" d="M20.6362 1.59323L20.6362 1.59325C20.7463 1.33647 20.9177 1.05582 21.2021 0.840804C21.4929 0.620997 21.8619 0.5 22.311 0.5H25.1046C25.5902 0.5 26.0533 0.623348 26.3202 1.00491C26.5756 1.37012 26.534 1.80808 26.4338 2.15221C26.3242 2.63494 26.0149 3.28802 25.6516 3.95599C25.2747 4.6489 24.809 5.41179 24.3584 6.11749C23.9072 6.82423 23.4676 7.47896 23.141 7.95668C22.9777 8.19567 22.8424 8.39069 22.7478 8.52614C22.7005 8.59387 22.6634 8.64673 22.638 8.68277L22.6089 8.72398L22.6073 8.72625C22.5366 8.83963 22.4904 8.91756 22.4591 8.98318C22.4285 9.04742 22.4238 9.07696 22.4229 9.08828C22.4228 9.08887 22.4077 9.15662 22.5856 9.38523L22.5919 9.39335L22.5979 9.40172C22.7131 9.56318 22.988 9.83447 23.3693 10.2081C23.727 10.5585 24.1496 10.9728 24.4922 11.3771C25.0938 12.0541 25.6302 12.6879 26.0503 13.2564C26.4647 13.8172 26.7948 14.3521 26.9468 14.8257L26.9507 14.8381L26.9506 14.8382C27.0911 15.3188 27.0762 15.8168 26.7517 16.1935C26.4427 16.5521 25.9656 16.6652 25.5037 16.6652H22.7101C22.3696 16.6652 22.0698 16.5955 21.7838 16.4458C21.5087 16.3017 21.2685 16.0948 21.0309 15.8566C20.8396 15.6648 20.6302 15.4317 20.395 15.17C20.3406 15.1095 20.2849 15.0475 20.2276 14.9841C19.9187 14.6418 19.5515 14.2416 19.0881 13.778C17.442 12.1916 16.8586 12.116 16.6562 12.116C16.557 12.116 16.4982 12.1222 16.4645 12.1288C16.4607 12.1412 16.4562 12.1585 16.4517 12.1819C16.4359 12.2636 16.4257 12.3868 16.4257 12.5734V15.0786C16.4257 15.4659 16.3657 15.9641 15.8725 16.2949C15.458 16.573 14.8184 16.6652 13.9303 16.6652C10.7724 16.6652 7.38085 14.7572 5.0012 11.3418C3.24888 8.88517 2.12846 6.72189 1.4445 5.07062C1.10253 4.24502 0.868775 3.54524 0.719728 2.99878C0.574605 2.4667 0.5 2.04511 0.5 1.79018C0.5 1.53172 0.547507 1.17657 0.818607 0.893707C1.09154 0.608932 1.49143 0.5 1.9578 0.5H4.75138C5.18484 0.5 5.56974 0.597094 5.88254 0.885122C6.16989 1.14971 6.3365 1.52473 6.4742 1.92255L6.47461 1.92374C7.14563 3.87811 8.04649 5.70728 8.89001 7.04032C9.31269 7.7083 9.7122 8.23773 10.0517 8.59352C10.2219 8.77194 10.3658 8.89471 10.4794 8.9695C10.5342 9.00558 10.5727 9.02436 10.5963 9.03411C10.6013 9.0123 10.6063 8.98565 10.611 8.95338C10.6269 8.84464 10.6367 8.69198 10.6367 8.47882V4.37888C10.5889 3.54685 10.3514 3.12945 10.14 2.84195C10.0844 2.7663 10.0291 2.69781 9.96986 2.62444L9.96164 2.61426C9.9025 2.54102 9.83458 2.45674 9.77433 2.36955C9.64831 2.18716 9.52686 1.95171 9.52686 1.64213C9.52686 1.05061 10.0206 0.5 10.7376 0.5H15.1275C15.5116 0.5 15.8941 0.60652 16.1491 0.947642C16.3761 1.25123 16.4257 1.64801 16.4257 2.02684V7.56132C16.4257 7.70377 16.4452 7.7929 16.4629 7.84428C16.586 7.80315 16.798 7.65862 17.2991 7.15834C18.2619 6.07952 19.0946 4.69789 19.6919 3.56883C19.99 3.00548 20.2263 2.51117 20.3877 2.1583C20.4684 1.98197 20.5303 1.84122 20.5718 1.74516C20.5926 1.69713 20.6082 1.66029 20.6185 1.63578L20.6299 1.60841L20.6326 1.60192L20.6332 1.60053L20.6333 1.60039L20.6362 1.59323ZM20.6362 1.59323L20.6333 1.6003L20.6362 1.59323Z" stroke="white"/>
    <path class="svg_original" d="M20.6362 1.59323L20.6362 1.59325C20.7463 1.33647 20.9177 1.05582 21.2021 0.840804C21.4929 0.620997 21.8619 0.5 22.311 0.5H25.1046C25.5902 0.5 26.0533 0.623348 26.3202 1.00491C26.5756 1.37012 26.534 1.80808 26.4338 2.15221C26.3242 2.63494 26.0149 3.28802 25.6516 3.95599C25.2747 4.6489 24.809 5.41179 24.3584 6.11749C23.9072 6.82423 23.4676 7.47896 23.141 7.95668C22.9777 8.19567 22.8424 8.39069 22.7478 8.52614C22.7005 8.59387 22.6634 8.64673 22.638 8.68277L22.6089 8.72398L22.6073 8.72625C22.5366 8.83963 22.4904 8.91756 22.4591 8.98318C22.4285 9.04742 22.4238 9.07696 22.4229 9.08828C22.4228 9.08887 22.4077 9.15662 22.5856 9.38523L22.5919 9.39335L22.5979 9.40172C22.7131 9.56318 22.988 9.83447 23.3693 10.2081C23.727 10.5585 24.1496 10.9728 24.4922 11.3771C25.0938 12.0541 25.6302 12.6879 26.0503 13.2564C26.4647 13.8172 26.7948 14.3521 26.9468 14.8257L26.9507 14.8381L26.9506 14.8382C27.0911 15.3188 27.0762 15.8168 26.7517 16.1935C26.4427 16.5521 25.9656 16.6652 25.5037 16.6652H22.7101C22.3696 16.6652 22.0698 16.5955 21.7838 16.4458C21.5087 16.3017 21.2685 16.0948 21.0309 15.8566C20.8396 15.6648 20.6302 15.4317 20.395 15.17C20.3406 15.1095 20.2849 15.0475 20.2276 14.9841C19.9187 14.6418 19.5515 14.2416 19.0881 13.778C17.442 12.1916 16.8586 12.116 16.6562 12.116C16.557 12.116 16.4982 12.1222 16.4645 12.1288C16.4607 12.1412 16.4562 12.1585 16.4517 12.1819C16.4359 12.2636 16.4257 12.3868 16.4257 12.5734V15.0786C16.4257 15.4659 16.3657 15.9641 15.8725 16.2949C15.458 16.573 14.8184 16.6652 13.9303 16.6652C10.7724 16.6652 7.38085 14.7572 5.0012 11.3418C3.24888 8.88517 2.12846 6.72189 1.4445 5.07062C1.10253 4.24502 0.868775 3.54524 0.719728 2.99878C0.574605 2.4667 0.5 2.04511 0.5 1.79018C0.5 1.53172 0.547507 1.17657 0.818607 0.893707C1.09154 0.608932 1.49143 0.5 1.9578 0.5H4.75138C5.18484 0.5 5.56974 0.597094 5.88254 0.885122C6.16989 1.14971 6.3365 1.52473 6.4742 1.92255L6.47461 1.92374C7.14563 3.87811 8.04649 5.70728 8.89001 7.04032C9.31269 7.7083 9.7122 8.23773 10.0517 8.59352C10.2219 8.77194 10.3658 8.89471 10.4794 8.9695C10.5342 9.00558 10.5727 9.02436 10.5963 9.03411C10.6013 9.0123 10.6063 8.98565 10.611 8.95338C10.6269 8.84464 10.6367 8.69198 10.6367 8.47882V4.37888C10.5889 3.54685 10.3514 3.12945 10.14 2.84195C10.0844 2.7663 10.0291 2.69781 9.96986 2.62444L9.96164 2.61426C9.9025 2.54102 9.83458 2.45674 9.77433 2.36955C9.64831 2.18716 9.52686 1.95171 9.52686 1.64213C9.52686 1.05061 10.0206 0.5 10.7376 0.5H15.1275C15.5116 0.5 15.8941 0.60652 16.1491 0.947642C16.3761 1.25123 16.4257 1.64801 16.4257 2.02684V7.56132C16.4257 7.70377 16.4452 7.7929 16.4629 7.84428C16.586 7.80315 16.798 7.65862 17.2991 7.15834C18.2619 6.07952 19.0946 4.69789 19.6919 3.56883C19.99 3.00548 20.2263 2.51117 20.3877 2.1583C20.4684 1.98197 20.5303 1.84122 20.5718 1.74516C20.5926 1.69713 20.6082 1.66029 20.6185 1.63578L20.6299 1.60841L20.6326 1.60192L20.6332 1.60053L20.6333 1.60039L20.6362 1.59323ZM20.6362 1.59323L20.6333 1.6003L20.6362 1.59323Z" stroke="white"/>
</svg>
