<svg width="32" height="21" viewBox="0 0 32 21" fill=""
    xmlns="http://www.w3.org/2000/svg">

    <defs>
        <linearGradient id="gradient" x1="85%" y1="100%" x2="15%" y2="0%">

            <stop offset="0%" style="stop-color:rgba(255, 255, 255, 1);stop-opacity:1.00" />
            <stop offset="33%" style="stop-color:rgba(255, 255, 255, 1);stop-opacity:1.00" />
            <stop offset="33%" style="stop-color:rgba(255, 75, 28, 1);stop-opacity:1.00" />
            <stop offset="66%" style="stop-color:rgba(255, 75, 28, 1);stop-opacity:1.00" />
            <stop offset="66%" style="stop-color:rgba(6, 255, 255, 1);stop-opacity:1.00" />
            <stop offset="100%" style="stop-color:rgba(6, 255, 255, 1);stop-opacity:1.00" />

        </linearGradient>

        <filter id="blur" x="0" y="0">
            <feGaussianBlur in="SourceGraphic" stdDeviation="1.3" />
        </filter>
    </defs>

    <path class="svg_blur" d="M0.556428 1.02258C0.544724 1.03446 0.535156 5.21894 0.535156 10.3214V19.5986L5.6776 19.598C11.1753 19.5973 11.0388 19.601 11.8246 19.4356C12.3341 19.3283 12.9747 19.1028 13.4351 18.8686C14.8883 18.1294 15.7599 16.9333 16.052 15.2772C16.0783 15.128 16.1122 14.7567 16.1273 14.452C16.2497 11.9858 15.3986 10.2262 13.8178 9.6774C13.5759 9.5934 13.1389 9.50674 12.9286 9.50103L12.7973 9.49749L12.9386 9.46928C13.162 9.42466 13.4797 9.31047 13.7221 9.18759C14.9006 8.59035 15.4921 7.50685 15.4921 5.94555C15.4921 4.51203 15.0603 3.35102 14.2016 2.47615C13.3789 1.63779 12.2249 1.14812 10.8057 1.03507C10.3314 0.997326 0.592911 0.985414 0.556428 1.02258ZM19.9887 3.25667V4.40889H23.8316H27.6745V3.25667V2.10446H23.8316H19.9887V3.25667ZM10.685 4.45205C11.0548 4.6368 11.3265 5.01524 11.4578 5.52865C11.5289 5.80628 11.5521 6.37817 11.5087 6.78368C11.396 7.83811 11.0488 8.30655 10.287 8.43239C10.1625 8.45297 9.0933 8.46559 7.4635 8.46572L4.84046 8.46598V6.4043V4.34261L7.67079 4.35141L10.5011 4.3602L10.685 4.45205ZM23.1551 5.77298C21.6074 5.92504 20.3969 6.39076 19.3932 7.22032C18.1306 8.26381 17.2898 9.85847 16.9567 11.8415C16.8591 12.4221 16.8369 13.4607 16.9093 14.0508C17.3009 17.2397 19.1471 19.2764 22.1573 19.8402C22.621 19.927 22.9153 19.9567 23.6243 19.9881C25.587 20.075 27.2827 19.6831 28.5008 18.861C28.8827 18.6033 29.4891 17.9765 29.7108 17.6103C30.1053 16.9588 30.3127 16.2609 30.3719 15.3863L30.3944 15.0547H28.7524H27.1105L27.0591 15.3205C26.9836 15.7105 26.8475 15.9668 26.561 16.2587C26.3674 16.4562 26.2587 16.5356 26.0162 16.657C25.5007 16.915 24.8946 17.0343 24.0989 17.0345C22.6931 17.0348 21.6537 16.4583 21.1728 15.4117C20.9876 15.0086 20.8512 14.3809 20.85 13.9268L20.8498 13.8213H25.6619C29.8854 13.8213 30.4763 13.8155 30.4922 13.7732C30.5366 13.6557 30.5508 12.6055 30.5147 12.1174C30.2677 8.7775 28.7406 6.66969 26.0686 5.98005C25.4811 5.82848 24.9774 5.7686 24.1824 5.75588C23.779 5.74938 23.3167 5.75711 23.1551 5.77298ZM24.4092 8.49847C25.4632 8.59344 26.1801 9.07685 26.5913 9.9699C26.7386 10.2897 26.8611 10.7417 26.8948 11.0891L26.9173 11.3222H23.8655C20.9739 11.3222 20.8145 11.3192 20.83 11.2654C20.839 11.2342 20.8683 11.1209 20.895 11.0138C21.049 10.3957 21.4604 9.67646 21.8819 9.28824C22.0847 9.10139 22.4208 8.87682 22.6562 8.77088C23.0401 8.59811 23.3577 8.52755 24.007 8.47072C24.0333 8.46842 24.2143 8.48091 24.4092 8.49847ZM10.63 11.4038C11.6674 11.6722 12.2253 12.6385 12.1662 14.0648C12.1178 15.2339 11.6633 15.898 10.7079 16.1957L10.4692 16.2701L7.65485 16.2802L4.84046 16.2904V13.8225V11.3546H7.64018C10.0363 11.3546 10.4673 11.3617 10.63 11.4038Z" stroke="white"/>
    <path class="svg_original"d="M0.556428 1.02258C0.544724 1.03446 0.535156 5.21894 0.535156 10.3214V19.5986L5.6776 19.598C11.1753 19.5973 11.0388 19.601 11.8246 19.4356C12.3341 19.3283 12.9747 19.1028 13.4351 18.8686C14.8883 18.1294 15.7599 16.9333 16.052 15.2772C16.0783 15.128 16.1122 14.7567 16.1273 14.452C16.2497 11.9858 15.3986 10.2262 13.8178 9.6774C13.5759 9.5934 13.1389 9.50674 12.9286 9.50103L12.7973 9.49749L12.9386 9.46928C13.162 9.42466 13.4797 9.31047 13.7221 9.18759C14.9006 8.59035 15.4921 7.50685 15.4921 5.94555C15.4921 4.51203 15.0603 3.35102 14.2016 2.47615C13.3789 1.63779 12.2249 1.14812 10.8057 1.03507C10.3314 0.997326 0.592911 0.985414 0.556428 1.02258ZM19.9887 3.25667V4.40889H23.8316H27.6745V3.25667V2.10446H23.8316H19.9887V3.25667ZM10.685 4.45205C11.0548 4.6368 11.3265 5.01524 11.4578 5.52865C11.5289 5.80628 11.5521 6.37817 11.5087 6.78368C11.396 7.83811 11.0488 8.30655 10.287 8.43239C10.1625 8.45297 9.0933 8.46559 7.4635 8.46572L4.84046 8.46598V6.4043V4.34261L7.67079 4.35141L10.5011 4.3602L10.685 4.45205ZM23.1551 5.77298C21.6074 5.92504 20.3969 6.39076 19.3932 7.22032C18.1306 8.26381 17.2898 9.85847 16.9567 11.8415C16.8591 12.4221 16.8369 13.4607 16.9093 14.0508C17.3009 17.2397 19.1471 19.2764 22.1573 19.8402C22.621 19.927 22.9153 19.9567 23.6243 19.9881C25.587 20.075 27.2827 19.6831 28.5008 18.861C28.8827 18.6033 29.4891 17.9765 29.7108 17.6103C30.1053 16.9588 30.3127 16.2609 30.3719 15.3863L30.3944 15.0547H28.7524H27.1105L27.0591 15.3205C26.9836 15.7105 26.8475 15.9668 26.561 16.2587C26.3674 16.4562 26.2587 16.5356 26.0162 16.657C25.5007 16.915 24.8946 17.0343 24.0989 17.0345C22.6931 17.0348 21.6537 16.4583 21.1728 15.4117C20.9876 15.0086 20.8512 14.3809 20.85 13.9268L20.8498 13.8213H25.6619C29.8854 13.8213 30.4763 13.8155 30.4922 13.7732C30.5366 13.6557 30.5508 12.6055 30.5147 12.1174C30.2677 8.7775 28.7406 6.66969 26.0686 5.98005C25.4811 5.82848 24.9774 5.7686 24.1824 5.75588C23.779 5.74938 23.3167 5.75711 23.1551 5.77298ZM24.4092 8.49847C25.4632 8.59344 26.1801 9.07685 26.5913 9.9699C26.7386 10.2897 26.8611 10.7417 26.8948 11.0891L26.9173 11.3222H23.8655C20.9739 11.3222 20.8145 11.3192 20.83 11.2654C20.839 11.2342 20.8683 11.1209 20.895 11.0138C21.049 10.3957 21.4604 9.67646 21.8819 9.28824C22.0847 9.10139 22.4208 8.87682 22.6562 8.77088C23.0401 8.59811 23.3577 8.52755 24.007 8.47072C24.0333 8.46842 24.2143 8.48091 24.4092 8.49847ZM10.63 11.4038C11.6674 11.6722 12.2253 12.6385 12.1662 14.0648C12.1178 15.2339 11.6633 15.898 10.7079 16.1957L10.4692 16.2701L7.65485 16.2802L4.84046 16.2904V13.8225V11.3546H7.64018C10.0363 11.3546 10.4673 11.3617 10.63 11.4038Z" stroke="white"/>
</svg>
